<?xml version="1.0" standalone="no"?>
<!DOCTYPE svg PUBLIC "-//W3C//DTD SVG 20010904//EN"
 "http://www.w3.org/TR/2001/REC-SVG-20010904/DTD/svg10.dtd">
<svg version="1.0" xmlns="http://www.w3.org/2000/svg"
 width="2368.000000pt" height="2368.000000pt" viewBox="0 0 2368.000000 2368.000000"
 preserveAspectRatio="xMidYMid meet">
<metadata>
Created by potrace 1.14, written by Peter Selinger 2001-2017
</metadata>
<g transform="translate(0.000000,2368.000000) scale(0.100000,-0.100000)"
fill="#000000" stroke="none">
<path d="M9063 14751 c-21 -27 -47 -52 -58 -56 -33 -10 -126 -125 -158 -195
-18 -40 -52 -88 -92 -130 -34 -36 -86 -103 -115 -150 -28 -47 -62 -96 -75
-110 -12 -14 -26 -35 -30 -47 -6 -23 -25 -32 -25 -13 0 17 -54 -10 -92 -47
-29 -28 -46 -36 -76 -37 -37 -1 -43 -7 -152 -136 -63 -74 -265 -310 -450 -525
-395 -458 -510 -597 -766 -920 -261 -330 -284 -360 -284 -369 0 -4 -9 -17 -21
-29 -48 -52 -619 -819 -619 -833 0 -3 10 -14 21 -23 21 -16 21 -19 6 -42 l-17
-25 178 -126 c269 -191 409 -281 425 -271 7 4 453 339 992 743 539 404 987
741 997 748 10 7 -21 -45 -70 -115 -224 -330 -341 -501 -391 -571 l-55 -75 28
-24 c19 -16 25 -29 21 -43 -11 -33 4 -57 58 -97 29 -20 78 -59 110 -85 88 -73
90 -73 166 -50 36 11 95 28 131 37 36 9 169 42 295 75 257 65 535 122 884 180
128 22 235 40 236 42 2 2 33 61 69 132 65 126 76 161 55 168 -6 2 -2 20 10 48
32 69 29 74 -31 66 -173 -22 -847 -138 -1160 -200 l-68 -13 37 66 c84 151 98
168 145 175 34 5 695 79 1007 113 60 7 69 16 162 169 52 87 58 104 34 104 -23
0 -18 14 15 50 17 18 27 36 23 40 -9 6 -328 -3 -765 -23 -148 -7 -268 -11
-268 -10 0 1 8 18 17 38 16 34 18 35 77 35 34 0 151 7 260 15 l199 14 39 38
39 38 364 0 c201 0 365 0 365 -1 0 -1 -76 -174 -170 -385 -93 -211 -170 -387
-170 -392 0 -4 -14 -38 -31 -75 -17 -37 -37 -80 -45 -97 -7 -16 -45 -100 -85
-185 -144 -312 -168 -368 -188 -426 -17 -52 -18 -61 -5 -75 11 -12 13 -28 9
-50 -6 -31 0 -41 65 -119 89 -106 221 -240 235 -240 6 0 63 120 125 268 63
147 145 335 183 417 38 83 98 215 134 295 36 80 68 149 73 153 4 5 61 -14 126
-41 197 -82 510 -220 572 -251 33 -16 274 -109 538 -206 457 -168 691 -245
749 -245 21 0 64 37 206 177 98 97 179 183 179 191 0 8 -7 20 -16 27 -15 11
-15 14 1 38 9 15 21 27 26 27 16 0 84 -52 81 -62 -1 -5 -27 -61 -57 -124 -30
-63 -79 -172 -109 -242 -30 -71 -68 -154 -85 -186 -17 -33 -31 -65 -31 -73 0
-7 -26 -66 -59 -131 -32 -64 -174 -366 -316 -671 -141 -305 -293 -629 -336
-719 -43 -91 -79 -167 -79 -169 0 -13 29 2 59 30 25 24 32 27 26 12 -4 -11
-10 -29 -13 -40 -5 -19 -4 -19 14 -4 10 9 40 27 65 42 56 32 67 48 125 184 97
226 176 367 215 383 15 7 35 20 45 31 9 10 25 19 35 19 10 0 51 29 90 65 40
36 104 86 143 111 39 25 100 64 135 87 l64 42 199 410 c110 226 258 531 329
678 71 148 141 287 156 310 l28 41 425 139 c234 76 662 216 953 311 290 96
527 170 527 165 0 -4 -9 -23 -19 -41 -52 -90 -256 -590 -312 -767 l-24 -74 32
-24 c27 -21 30 -28 23 -53 -10 -34 4 -48 162 -169 69 -53 112 -80 120 -75 7 5
45 34 83 65 39 31 156 115 260 186 105 71 228 157 275 190 47 34 86 60 88 58
2 -1 -15 -40 -38 -85 -63 -125 -64 -129 -36 -141 20 -10 23 -16 19 -53 l-5
-42 43 -13 c24 -7 57 -23 73 -34 16 -11 74 -46 129 -78 l100 -58 175 347 c96
191 189 372 207 402 18 30 54 98 80 150 40 80 490 873 531 936 12 18 9 30 -33
112 -56 110 -68 185 -35 208 18 12 20 21 15 63 -3 28 1 76 11 118 13 57 13 75
3 96 -8 18 -17 25 -27 21 -8 -4 -27 -9 -42 -12 -23 -3 -44 -31 -132 -176 -112
-183 -564 -913 -642 -1035 -39 -62 -58 -81 -121 -120 -41 -25 -174 -115 -296
-200 -224 -156 -447 -304 -447 -297 0 2 26 66 59 142 75 178 131 352 131 406
0 24 3 80 7 125 l6 82 36 12 c54 17 564 209 569 214 2 2 19 87 38 189 30 166
59 289 79 339 5 13 2 17 -13 17 -18 0 -19 4 -11 37 4 21 5 41 1 45 -15 15
-384 -19 -420 -37 -24 -12 -75 -20 -175 -26 -78 -4 -203 -13 -277 -20 -78 -6
-190 -9 -265 -5 -86 4 -188 1 -300 -8 -215 -19 -780 -52 -1170 -67 -165 -6
-306 -15 -313 -18 -7 -4 -48 -83 -91 -177 -43 -93 -154 -322 -247 -508 l-169
-339 -257 -96 c-142 -52 -258 -99 -258 -104 0 -5 14 -21 30 -35 37 -32 37 -36
4 -51 l-26 -11 66 -51 c36 -28 66 -53 66 -55 0 -3 -21 4 -130 48 -14 6 -131
47 -260 93 -258 91 -596 224 -790 312 l-64 29 109 28 c322 83 931 265 1140
341 120 44 335 140 335 150 0 3 -7 16 -15 29 -14 21 -14 24 0 36 8 7 15 18 15
24 0 7 -32 57 -71 112 -38 54 -82 119 -96 144 -14 25 -27 46 -28 48 -3 4 -412
39 -725 62 -496 36 -1248 70 -1551 70 l-146 0 -27 -40 c-20 -31 -33 -40 -54
-40 -15 0 -396 7 -847 15 l-820 16 -33 -38 c-19 -21 -65 -85 -104 -143 -109
-161 -93 -156 -152 -47 -28 52 -57 101 -65 111 -11 14 -38 16 -185 16 -94 0
-275 3 -403 7 l-231 6 206 256 c365 453 594 735 640 786 72 80 82 102 82 175
-1 61 -6 97 -28 180 -10 41 6 169 25 192 7 8 24 40 38 71 13 31 37 67 51 79
45 39 200 255 190 265 -8 9 -53 -34 -77 -74 -11 -18 -33 -38 -48 -46 -25 -13
-21 -3 35 72 35 47 64 92 64 99 0 27 -32 9 -67 -37z m-183 -337 c-11 -27 -50
-82 -50 -70 0 9 51 96 56 96 2 0 -1 -12 -6 -26z m3390 -1982 c107 -7 112 -8
75 -18 -323 -91 -1107 -294 -1132 -294 -15 0 -172 56 -181 65 -4 3 31 91 75
187 l37 81 506 -7 c278 -4 557 -11 620 -14z m3460 -53 c-354 -121 -1477 -465
-1487 -456 -14 15 151 349 190 384 20 18 57 23 387 47 552 41 1002 74 1030 74
14 0 -40 -22 -120 -49z m-7786 -86 l99 -6 -29 -24 c-56 -45 -391 -282 -664
-468 -151 -104 -288 -198 -305 -210 -49 -36 -63 -42 -44 -19 9 10 76 93 150
184 73 91 207 254 298 364 l165 199 116 -7 c63 -3 160 -9 214 -13z"/>
<path d="M5089 14074 c-136 -57 -138 -58 -166 -45 -22 10 -32 7 -81 -23 -79
-47 -218 -115 -337 -166 -138 -58 -380 -194 -467 -262 -71 -56 -1022 -517
-1928 -935 -256 -119 -483 -224 -505 -235 -22 -11 -150 -71 -284 -134 -134
-63 -246 -116 -249 -119 -3 -3 2 -13 11 -23 16 -18 8 -22 -186 -91 -111 -40
-245 -92 -297 -116 -156 -71 -297 -98 -398 -76 -34 7 -60 7 -77 1 -35 -13
-125 -73 -125 -82 0 -5 33 -25 74 -45 41 -20 72 -41 70 -47 -8 -22 667 -324
749 -335 78 -10 522 16 817 49 149 17 232 20 555 18 245 -2 428 1 515 10 74 6
322 21 550 32 498 24 840 46 1050 65 85 8 202 17 260 20 103 5 345 16 405 18
18 0 44 -9 62 -22 29 -22 32 -22 57 -6 14 10 76 74 137 143 l111 125 -7 46
c-9 63 -42 131 -64 131 -12 0 -24 14 -34 40 l-15 40 -68 0 c-74 0 -79 3 -224
134 -36 32 -83 68 -106 79 l-41 20 -114 -38 c-135 -44 -196 -50 -624 -65 -347
-12 -917 -38 -990 -45 -79 -7 -711 -18 -705 -12 3 3 113 65 245 138 132 72
474 264 760 427 286 162 644 364 795 449 151 86 345 194 430 243 85 48 166 90
180 93 23 6 245 -24 315 -42 26 -6 57 6 220 87 105 52 209 106 233 119 l43 26
-35 29 c-45 37 -45 51 -1 67 19 7 35 19 35 27 0 16 -60 62 -147 110 -33 19
-63 41 -66 48 -4 10 -163 114 -248 162 -3 1 -43 -13 -90 -32z"/>
<path d="M22575 13530 c-137 -71 -430 -216 -650 -322 -220 -106 -717 -351
-1105 -544 -388 -193 -707 -350 -708 -348 -2 1 55 114 127 251 72 136 130 253
128 258 -1 6 -7 9 -14 9 -8 -1 -5 12 7 37 11 21 20 43 20 49 0 13 -87 13 -281
-1 -178 -12 -211 -8 -229 26 -24 45 2 86 -298 -480 -442 -837 -432 -816 -416
-846 13 -26 9 -37 -99 -249 l-112 -222 64 -60 c72 -68 287 -230 307 -232 8 -1
35 42 61 94 91 180 446 820 455 820 33 0 598 -327 648 -375 47 -44 89 -68
2155 -1190 154 -83 402 -216 550 -295 403 -213 434 -230 440 -240 3 -6 13 -10
20 -10 11 0 12 6 5 26 -16 41 -13 56 10 49 25 -8 25 -1 -1 35 -16 21 -20 37
-16 63 4 29 1 39 -24 63 -18 17 -29 38 -29 55 0 20 -9 33 -35 49 -19 12 -35
28 -35 35 0 16 6 13 -825 493 -357 206 -819 475 -1025 597 l-375 222 -16 52
c-17 58 -36 77 -137 133 l-63 35 30 13 c38 15 39 25 5 46 l-25 17 30 20 c17
10 31 22 31 25 0 10 -175 121 -397 253 -105 63 -192 116 -192 119 -1 6 582
317 877 469 191 98 262 141 297 181 11 12 175 100 365 195 l345 173 70 114
c72 118 147 203 203 229 18 9 46 37 62 63 36 56 38 71 9 56 -11 -7 -22 -10
-24 -8 -3 2 14 30 35 61 41 59 45 68 33 66 -5 0 -120 -58 -258 -129z"/>
<path d="M17788 13276 c-38 -59 -43 -76 -25 -76 9 0 21 -2 29 -5 9 -4 17 9 25
42 6 27 13 54 15 62 7 31 -19 17 -44 -23z"/>
<path d="M22714 13226 c-27 -27 -34 -42 -34 -74 0 -114 147 -147 195 -45 24
49 7 106 -38 133 -48 30 -83 26 -123 -14z m121 -21 c63 -62 -6 -161 -90 -129
-19 8 -45 55 -45 84 0 32 44 70 80 70 19 0 40 -9 55 -25z"/>
<path d="M22740 13151 c0 -62 14 -80 29 -39 l8 22 14 -22 c18 -28 33 -29 26
-1 -3 12 0 30 6 40 18 29 -3 53 -47 57 l-36 3 0 -60z m60 24 c0 -8 -7 -15 -15
-15 -8 0 -15 7 -15 15 0 8 7 15 15 15 8 0 15 -7 15 -15z"/>
<path d="M5605 12892 c-81 -43 -200 -124 -265 -181 l-45 -39 1 -193 c0 -148 6
-224 22 -319 23 -142 42 -195 80 -224 15 -11 63 -55 107 -96 45 -41 93 -81
108 -89 24 -13 30 -12 68 13 22 15 42 26 44 24 1 -2 -49 -61 -112 -133 -175
-198 -264 -306 -388 -471 -62 -83 -178 -234 -257 -336 -78 -102 -237 -313
-353 -469 -245 -331 -543 -719 -695 -904 -59 -71 -126 -158 -149 -192 -23 -33
-48 -63 -56 -66 -16 -7 -50 -55 -43 -62 2 -3 30 9 61 26 31 17 57 28 57 25 0
-3 -14 -21 -31 -41 -36 -41 -34 -42 26 -13 36 18 66 49 153 162 180 235 351
436 370 436 7 0 31 17 55 38 41 38 91 62 128 62 10 0 38 14 63 30 61 42 220
116 279 131 36 9 50 9 61 0 12 -10 40 19 158 165 79 98 437 538 797 978 701
859 1230 1515 1234 1531 1 6 -8 11 -20 13 -29 4 -29 13 2 42 53 49 49 50 -281
50 l-307 0 -71 -57 c-145 -118 -486 -404 -580 -487 -53 -47 -102 -86 -108 -86
-13 0 -7 153 18 459 13 159 14 201 4 232 -13 37 -43 79 -58 79 -4 0 -38 -17
-77 -38z"/>
<path d="M18063 12838 c-19 -24 -130 -232 -213 -398 -45 -91 -117 -226 -160
-300 -78 -137 -175 -314 -270 -495 -29 -55 -79 -149 -111 -210 -32 -60 -83
-163 -113 -228 l-56 -119 31 7 30 7 -20 -41 c-12 -22 -21 -42 -21 -43 0 -13
471 49 498 66 5 3 40 61 77 128 126 230 327 579 330 576 2 -2 45 -176 95 -388
51 -212 94 -388 97 -392 5 -9 210 -8 301 1 l64 6 250 460 c374 689 618 1145
618 1156 0 5 -7 9 -15 9 -19 0 -19 3 6 51 11 23 18 43 16 45 -2 3 -106 1 -230
-2 l-226 -7 -32 -51 c-73 -115 -129 -215 -279 -491 -194 -358 -235 -428 -246
-432 -5 -2 -31 88 -57 199 -61 256 -137 538 -174 648 l-29 85 -67 3 c-56 2
-67 6 -67 21 0 9 -6 26 -14 36 -12 17 -12 24 5 57 10 20 19 40 19 43 0 10 -28
5 -37 -7z"/>
<path d="M14450 10354 c-41 -18 -92 -63 -84 -76 3 -4 0 -8 -5 -8 -14 0 -41
-65 -41 -96 0 -22 4 -24 55 -24 49 0 55 2 55 21 0 11 13 34 29 50 23 23 38 29
71 29 56 0 90 -36 90 -96 0 -37 -8 -54 -67 -131 -37 -48 -79 -103 -94 -122
-16 -19 -26 -38 -23 -43 3 -4 1 -8 -4 -8 -18 0 -103 -113 -91 -120 8 -6 6 -10
-5 -17 -13 -7 -17 -20 -14 -54 l3 -44 180 2 c99 1 193 3 208 3 26 0 28 2 23
39 -2 21 -1 43 3 49 4 6 171 11 490 15 l483 4 125 132 126 131 122 0 122 0 6
-67 c4 -38 7 -88 7 -112 0 -26 9 -59 22 -82 19 -35 26 -39 60 -39 28 0 36 -3
32 -14 -3 -8 -13 -16 -22 -18 -13 -3 -11 -8 12 -23 18 -12 51 -21 90 -23 78
-4 138 24 181 86 29 42 30 48 33 168 l4 124 109 0 c90 0 109 -3 109 -15 0 -8
5 -15 10 -15 6 0 13 7 16 15 5 13 49 15 304 15 289 0 299 -1 305 -20 9 -29 54
-60 87 -60 20 0 40 10 60 30 26 27 30 36 25 68 -8 45 -47 82 -86 82 -32 0 -77
-31 -86 -60 -6 -20 -17 -20 -430 -20 l-423 0 -4 109 c-3 103 -5 112 -33 153
-48 67 -95 89 -181 86 -133 -6 -197 -80 -201 -233 -1 -44 -2 -88 -2 -97 -1
-16 -14 -18 -125 -18 l-124 0 -128 -130 -128 -130 -122 0 c-113 0 -123 1 -118
18 5 16 5 16 -9 0 -13 -17 -42 -18 -351 -18 -263 0 -335 3 -333 13 2 14 -45
18 -65 5 -10 -7 -9 -12 6 -23 18 -14 6 -15 -113 -15 -87 0 -130 3 -126 10 4 6
11 7 17 4 7 -5 9 -2 6 8 -4 9 28 58 89 134 130 162 143 187 143 261 0 76 -18
120 -69 166 -61 55 -142 71 -211 41z m2014 -114 c48 -18 56 -52 56 -253 0
-198 -7 -238 -46 -256 -61 -27 -119 3 -145 77 -13 38 -13 38 24 47 21 6 27 4
27 -9 0 -10 -9 -16 -22 -17 -20 -1 -21 -2 -4 -6 12 -3 25 2 33 13 20 27 16 32
-24 30 l-38 -1 0 163 0 164 33 29 c34 30 63 36 106 19z m1152 -196 c20 -19 24
-31 20 -52 -8 -31 -40 -62 -66 -62 -26 0 -57 31 -64 63 -5 21 -1 33 18 52 32
32 60 32 92 -1z m-2859 -290 c-3 -3 -12 -4 -19 -1 -8 3 -5 6 6 6 11 1 17 -2
13 -5z m1608 -34 c-3 -5 -12 -10 -18 -10 -7 0 -6 4 3 10 19 12 23 12 15 0z"/>
<path d="M16430 9850 c0 -5 5 -10 11 -10 5 0 7 5 4 10 -3 6 -8 10 -11 10 -2 0
-4 -4 -4 -10z"/>
<path d="M18222 10363 l-123 -4 3 -107 3 -107 50 0 50 0 3 53 3 52 62 2 c63 1
110 -1 115 -6 1 -2 -23 -68 -53 -147 -31 -79 -79 -205 -106 -279 -28 -74 -54
-143 -59 -152 -19 -35 -12 -43 44 -46 64 -4 59 -10 121 156 34 91 41 102 59
97 20 -6 20 -5 3 8 -17 14 -17 17 1 63 l18 49 536 3 537 2 6 -22 c13 -41 36
-58 77 -58 42 0 88 34 88 65 0 15 20 16 205 9 152 -5 205 -4 205 5 0 8 -57 11
-205 11 -130 0 -205 4 -205 10 0 6 95 10 265 10 159 0 265 -4 265 -9 0 -6 -12
-42 -26 -80 l-26 -71 -42 -2 -41 -1 38 -4 c20 -2 37 -5 37 -6 0 -9 -45 -130
-61 -164 -10 -24 -19 -47 -19 -53 0 -6 26 -10 59 -10 l58 0 52 131 c28 72 53
138 54 147 6 34 38 82 55 83 10 0 12 3 5 6 -48 19 30 23 439 23 248 0 449 2
447 4 -2 2 -202 7 -444 11 -242 4 -441 9 -443 10 -2 1 15 50 38 109 29 77 40
121 40 161 l0 55 -210 0 -210 0 1 -110 1 -110 54 0 c52 0 54 1 55 28 1 15 1
31 0 36 -1 4 1 17 4 27 6 17 17 19 91 19 61 0 84 -3 84 -12 -1 -7 -18 -56 -39
-108 l-37 -95 -270 -3 c-253 -2 -270 -1 -284 16 -20 24 -53 42 -79 42 -24 0
-81 -46 -81 -66 0 -8 -6 -14 -12 -14 -79 -2 -1043 2 -1045 4 -2 2 17 56 42
121 37 95 45 127 43 169 l-3 51 -85 1 c-47 0 -140 -1 -208 -3z m1393 -308 c30
-29 32 -68 5 -95 -21 -21 -65 -26 -88 -11 -8 4 -16 26 -19 48 -5 35 -2 43 22
61 36 28 50 28 80 -3z"/>
<path d="M21338 10053 c34 -2 88 -2 120 0 31 2 3 3 -63 3 -66 0 -92 -1 -57 -3z"/>
<path d="M19208 10033 c7 -3 16 -2 19 1 4 3 -2 6 -13 5 -11 0 -14 -3 -6 -6z"/>
<path d="M19318 10033 c12 -2 30 -2 40 0 9 3 -1 5 -23 4 -22 0 -30 -2 -17 -4z"/>
<path d="M17725 10010 c-4 -6 15 -10 49 -10 31 0 56 5 56 10 0 6 -22 10 -49
10 -28 0 -53 -4 -56 -10z"/>
<path d="M17870 10010 l-25 -8 28 -1 c15 -1 27 4 27 9 0 6 -1 10 -2 9 -2 -1
-14 -5 -28 -9z"/>
<path d="M17957 10013 c-4 -3 -7 -13 -7 -22 1 -13 3 -13 11 2 11 19 8 33 -4
20z"/>
<path d="M18020 10009 c0 -5 23 -9 52 -9 28 0 49 3 45 6 -10 10 -97 12 -97 3z"/>
<path d="M20408 9993 c6 -2 18 -2 25 0 6 3 1 5 -13 5 -14 0 -19 -2 -12 -5z"/>
<path d="M20623 9993 c42 -2 112 -2 155 0 42 1 7 3 -78 3 -85 0 -120 -2 -77
-3z"/>
<path d="M17730 9980 c0 -5 7 -10 15 -10 8 0 15 5 15 10 0 6 -7 10 -15 10 -8
0 -15 -4 -15 -10z"/>
<path d="M16920 9920 c0 -5 7 -10 16 -10 8 0 12 5 9 10 -3 6 -10 10 -16 10 -5
0 -9 -4 -9 -10z"/>
<path d="M18027 9924 c-13 -13 -7 -24 14 -24 11 0 19 5 17 12 -5 14 -22 21
-31 12z"/>
<path d="M14615 9889 c-10 -15 3 -25 16 -12 7 7 7 13 1 17 -6 3 -14 1 -17 -5z"/>
<path d="M14900 9879 c0 -18 2 -19 15 -9 8 7 15 16 15 21 0 5 -7 9 -15 9 -9 0
-15 -9 -15 -21z"/>
<path d="M15955 9890 c-3 -6 2 -13 12 -17 10 -3 20 -7 23 -9 3 -1 7 6 7 17 2
20 -31 27 -42 9z"/>
<path d="M18035 9891 c-27 -3 -45 -9 -40 -12 15 -10 126 2 119 12 -3 5 -11 8
-17 7 -7 0 -34 -4 -62 -7z"/>
<path d="M18753 9873 c9 -2 23 -2 30 0 6 3 -1 5 -18 5 -16 0 -22 -2 -12 -5z"/>
<path d="M18968 9873 c12 -2 32 -2 45 0 12 2 2 4 -23 4 -25 0 -35 -2 -22 -4z"/>
<path d="M19041 9876 c7 -7 219 -9 226 -2 4 3 -47 6 -112 6 -65 0 -116 -2
-114 -4z"/>
<path d="M19330 9876 c0 -2 7 -6 15 -10 8 -3 15 -1 15 4 0 6 -7 10 -15 10 -8
0 -15 -2 -15 -4z"/>
<path d="M19390 9873 c0 -5 16 -9 35 -10 19 -1 35 3 35 8 0 5 -16 9 -35 9 -19
0 -35 -3 -35 -7z"/>
<path d="M19520 9876 c0 -2 9 -6 20 -9 11 -3 20 -1 20 4 0 5 -9 9 -20 9 -11 0
-20 -2 -20 -4z"/>
<path d="M19610 9870 c0 -5 11 -10 25 -10 14 0 25 5 25 10 0 6 -11 10 -25 10
-14 0 -25 -4 -25 -10z"/>
<path d="M19810 9870 c0 -5 7 -10 16 -10 8 0 12 5 9 10 -3 6 -10 10 -16 10 -5
0 -9 -4 -9 -10z"/>
<path d="M20005 9870 c-3 -5 1 -10 10 -10 9 0 13 5 10 10 -3 6 -8 10 -10 10
-2 0 -7 -4 -10 -10z"/>
<path d="M16078 9863 c12 -2 30 -2 40 0 9 3 -1 5 -23 4 -22 0 -30 -2 -17 -4z"/>
<path d="M16655 9860 c-13 -20 7 -32 25 -15 12 11 20 13 25 5 3 -5 11 -8 16
-4 5 3 7 10 4 15 -8 12 -62 12 -70 -1z"/>
<path d="M17306 9861 c-3 -4 6 -6 19 -3 14 2 25 6 25 8 0 8 -39 4 -44 -5z"/>
<path d="M17400 9855 c0 -8 2 -15 4 -15 2 0 6 7 10 15 3 8 1 15 -4 15 -6 0
-10 -7 -10 -15z"/>
<path d="M17482 9860 c10 -6 31 -7 55 -1 38 9 38 9 -17 10 -40 0 -50 -2 -38
-9z"/>
<path d="M20383 9863 c9 -2 23 -2 30 0 6 3 -1 5 -18 5 -16 0 -22 -2 -12 -5z"/>
<path d="M20453 9863 c15 -2 39 -2 55 0 15 2 2 4 -28 4 -30 0 -43 -2 -27 -4z"/>
<path d="M20563 9863 c9 -2 25 -2 35 0 9 3 1 5 -18 5 -19 0 -27 -2 -17 -5z"/>
<path d="M20643 9863 c9 -2 25 -2 35 0 9 3 1 5 -18 5 -19 0 -27 -2 -17 -5z"/>
<path d="M16175 9851 c-3 -5 -1 -12 5 -16 5 -3 10 1 10 9 0 18 -6 21 -15 7z"/>
<path d="M14970 9830 c0 -5 7 -10 16 -10 8 0 12 5 9 10 -3 6 -10 10 -16 10 -5
0 -9 -4 -9 -10z"/>
<path d="M16040 9790 c0 -5 12 -10 26 -10 14 0 23 4 19 10 -3 6 -15 10 -26 10
-10 0 -19 -4 -19 -10z"/>
<path d="M16123 9793 c9 -2 25 -2 35 0 9 3 1 5 -18 5 -19 0 -27 -2 -17 -5z"/>
<path d="M17098 9783 c7 -3 16 -2 19 1 4 3 -2 6 -13 5 -11 0 -14 -3 -6 -6z"/>
<path d="M17198 9783 c7 -3 16 -2 19 1 4 3 -2 6 -13 5 -11 0 -14 -3 -6 -6z"/>
<path d="M17480 9780 c0 -5 17 -10 38 -9 33 1 34 2 12 9 -36 11 -50 11 -50 0z"/>
<path d="M15355 9770 c-4 -6 5 -10 19 -10 14 0 26 5 26 10 0 6 -9 10 -19 10
-11 0 -23 -4 -26 -10z"/>
<path d="M15520 9770 c0 -5 23 -10 50 -10 28 0 50 5 50 10 0 6 -22 10 -50 10
-27 0 -50 -4 -50 -10z"/>
</g>
</svg>
